STARTFONT 2.1
FONT cursor
SIZE 47 78 78
FONTBOUNDINGBOX 45 42 -21 -23
STARTPROPERTIES 13
COPYRIGHT "(C) 2000 Rik Hemsley <rik@kde.org>"
POINT_SIZE 470
FONT "cursor"
WEIGHT 10
RESOLUTION 107
RESOLUTION_X 78
RESOLUTION_Y 78
X_HEIGHT -1
QUAD_WIDTH 20
DEFAULT_CHAR 0
FONT_ASCENT 23
FONT_DESCENT 24
_XMBDFED_INFO "Edited with xmbdfed 4.3."
ENDPROPERTIES
CHARS 154
STARTCHAR D
ENCODING 0
SWIDTH 255 0
DWIDTH 13 0
BBX 12 21 1 -22
BITMAP
8000
C000
E000
F000
F800
FC00
FE00
FF00
FF80
FFC0
FFE0
FFF0
FF00
FE00
EF00
C700
8780
0380
03C0
01C0
01C0
ENDCHAR
STARTCHAR E
ENCODING 1
SWIDTH 530 0
DWIDTH 27 0
BBX 14 23 0 -23
BITMAP
C000
E000
F000
F800
FC00
FE00
FF00
FF80
FFC0
FFE0
FFF0
FFF8
FFFC
FFF8
FF80
FFC0
F7C0
E7E0
C3E0
03F0
01F0
01F0
00E0
ENDCHAR
STARTCHAR C002
ENCODING 2
SWIDTH 1139 0
DWIDTH 58 0
BBX 12 21 -10 -22
BITMAP
0010
0030
0070
00F0
01F0
03F0
07F0
0FF0
1FF0
3FF0
7FF0
FFF0
0FF0
07F0
0F70
0E30
1E10
1C00
3C00
3800
3800
ENDCHAR
STARTCHAR C003
ENCODING 3
SWIDTH 1414 0
DWIDTH 72 0
BBX 14 23 -11 -23
BITMAP
000C
001C
003C
007C
00FC
01FC
03FC
07FC
0FFC
1FFC
3FFC
7FFC
FFFC
7FFC
07FC
0FFC
0FBC
1F9C
1F0C
3F00
3E00
3E00
1C00
ENDCHAR
STARTCHAR C004
ENCODING 4
SWIDTH 137 0
DWIDTH 7 0
BBX 11 15 -4 -2
BITMAP
FFE0
FFE0
FFE0
0E00
0E00
0E00
0E00
0E00
0E00
FFE0
7FC0
3F80
1F00
0E00
0400
ENDCHAR
STARTCHAR C004
ENCODING 5
SWIDTH 176 0
DWIDTH 9 0
BBX 15 17 -6 -3
BITMAP
3FF8
7FFC
7FFC
7FFC
3FF8
07C0
07C0
07C0
07C0
FFFE
7FFC
3FF8
1FF0
0FE0
07C0
0380
0100
ENDCHAR
STARTCHAR C004
ENCODING 6
SWIDTH 137 0
DWIDTH 7 0
BBX 11 15 -4 -16
BITMAP
0400
0E00
1F00
3F80
7FC0
FFE0
0E00
0E00
0E00
0E00
0E00
0E00
FFE0
FFE0
FFE0
ENDCHAR
STARTCHAR C004
ENCODING 7
SWIDTH 176 0
DWIDTH 9 0
BBX 15 17 -6 -17
BITMAP
0100
0380
07C0
0FE0
1FF0
3FF8
7FFC
FFFE
07C0
07C0
07C0
07C0
3FF8
7FFC
7FFC
7FFC
3FF8
ENDCHAR
STARTCHAR D
ENCODING 8
SWIDTH 255 0
DWIDTH 13 0
BBX 12 21 1 -22
BITMAP
8000
C000
E000
F000
F800
FC00
FE00
FF00
FF80
FFC0
FFE0
FFF0
FF00
FE00
EF00
C700
8780
0380
03C0
01C0
01C0
ENDCHAR
STARTCHAR E
ENCODING 9
SWIDTH 530 0
DWIDTH 27 0
BBX 14 23 0 -23
BITMAP
C000
E000
F000
F800
FC00
FE00
FF00
FF80
FFC0
FFE0
FFF0
FFF8
FFFC
FFF8
FF80
FFC0
F7C0
E7E0
C3E0
03F0
01F0
01F0
00E0
ENDCHAR
STARTCHAR D
ENCODING 10
SWIDTH 255 0
DWIDTH 13 0
BBX 12 21 1 -22
BITMAP
8000
C000
E000
F000
F800
FC00
FE00
FF00
FF80
FFC0
FFE0
FFF0
FF00
FE00
EF00
C700
8780
0380
03C0
01C0
01C0
ENDCHAR
STARTCHAR E
ENCODING 11
SWIDTH 530 0
DWIDTH 27 0
BBX 14 23 0 -23
BITMAP
C000
E000
F000
F800
FC00
FE00
FF00
FF80
FFC0
FFE0
FFF0
FFF8
FFFC
FFF8
FF80
FFC0
F7C0
E7E0
C3E0
03F0
01F0
01F0
00E0
ENDCHAR
STARTCHAR C014
ENCODING 12
SWIDTH 510 0
DWIDTH 26 0
BBX 21 21 0 -3
BITMAP
E00000
E00000
E00000
E00100
E00380
E087C0
E0CF80
E0FF00
E0FE00
E0FC00
E0FC00
E0FE00
E0FF00
E00000
E00000
E00000
E00000
E00000
FFFFF8
FFFFF8
FFFFF8
ENDCHAR
STARTCHAR C014
ENCODING 13
SWIDTH 432 0
DWIDTH 22 0
BBX 23 23 -1 -4
BITMAP
700000
F80000
F80000
F80080
F881C0
F8C3E0
F8E7F0
F8FFE0
F8FFC0
F8FF80
F8FF00
F8FF00
F8FF80
F8FFC0
F8FFE0
F80000
F80000
F80000
FFFFFC
FFFFFE
FFFFFE
FFFFFE
FFFFFC
ENDCHAR
STARTCHAR C014
ENCODING 14
SWIDTH 510 0
DWIDTH 26 0
BBX 21 21 -18 -3
BITMAP
000038
000038
000038
040038
0E0038
1F0838
0F9838
07F838
03F838
01F838
01F838
03F838
07F838
000038
000038
000038
000038
000038
FFFFF8
FFFFF8
FFFFF8
ENDCHAR
STARTCHAR C014
ENCODING 15
SWIDTH 432 0
DWIDTH 22 0
BBX 23 23 -19 -4
BITMAP
00001C
00003E
00003E
02003E
07023E
0F863E
1FCE3E
0FFE3E
07FE3E
03FE3E
01FE3E
01FE3E
03FE3E
07FE3E
0FFE3E
00003E
00003E
00003E
7FFFFE
FFFFFE
FFFFFE
FFFFFE
7FFFFE
ENDCHAR
STARTCHAR C020
ENCODING 16
SWIDTH 216 0
DWIDTH 11 0
BBX 19 20 -8 -3
BITMAP
00E000
00E000
00E000
00E000
00E000
00E000
00E000
0FFE00
07FC00
03F800
01F000
00E000
004000
000000
000000
000000
000000
FFFFE0
FFFFE0
FFFFE0
ENDCHAR
STARTCHAR C020
ENCODING 17
SWIDTH 235 0
DWIDTH 12 0
BBX 21 22 -9 -4
BITMAP
007000
00F800
00F800
00F800
00F800
00F800
00F800
1FFFC0
0FFF80
07FF00
03FE00
01FC00
00F800
007000
002000
000000
000000
7FFFF0
FFFFF8
FFFFF8
FFFFF8
7FFFF0
ENDCHAR
STARTCHAR D
ENCODING 18
SWIDTH 255 0
DWIDTH 13 0
BBX 12 21 1 -22
BITMAP
8000
C000
E000
F000
F800
FC00
FE00
FF00
FF80
FFC0
FFE0
FFF0
FF00
FE00
EF00
C700
8780
0380
03C0
01C0
01C0
ENDCHAR
STARTCHAR E
ENCODING 19
SWIDTH 530 0
DWIDTH 27 0
BBX 14 23 0 -23
BITMAP
C000
E000
F000
F800
FC00
FE00
FF00
FF80
FFC0
FFE0
FFF0
FFF8
FFFC
FFF8
FF80
FFC0
F7C0
E7E0
C3E0
03F0
01F0
01F0
00E0
ENDCHAR
STARTCHAR D
ENCODING 20
SWIDTH 255 0
DWIDTH 13 0
BBX 12 21 1 -22
BITMAP
8000
C000
E000
F000
F800
FC00
FE00
FF00
FF80
FFC0
FFE0
FFF0
FF00
FE00
EF00
C700
8780
0380
03C0
01C0
01C0
ENDCHAR
STARTCHAR E
ENCODING 21
SWIDTH 530 0
DWIDTH 27 0
BBX 14 23 0 -23
BITMAP
C000
E000
F000
F800
FC00
FE00
FF00
FF80
FFC0
FFE0
FFF0
FFF8
FFFC
FFF8
FF80
FFC0
F7C0
E7E0
C3E0
03F0
01F0
01F0
00E0
ENDCHAR
STARTCHAR C026
ENCODING 22
SWIDTH 137 0
DWIDTH 7 0
BBX 11 20 -4 -21
BITMAP
0400
0400
0E00
0E00
1F00
1F00
3F80
3F80
7FC0
7FC0
FFE0
CE60
0E00
0E00
0E00
0E00
0E00
0E00
0E00
0400
ENDCHAR
STARTCHAR C026
ENCODING 23
SWIDTH 157 0
DWIDTH 8 0
BBX 13 22 -5 -22
BITMAP
0200
0700
0700
0F80
0F80
1FC0
1FC0
3FE0
3FE0
7FF0
7FF0
FFF8
FFF8
6FB0
0F80
0F80
0F80
0F80
0F80
0F80
0700
0200
ENDCHAR
STARTCHAR D
ENCODING 24
SWIDTH 255 0
DWIDTH 13 0
BBX 12 21 1 -22
BITMAP
8000
C000
E000
F000
F800
FC00
FE00
FF00
FF80
FFC0
FFE0
FFF0
FF00
FE00
EF00
C700
8780
0380
03C0
01C0
01C0
ENDCHAR
STARTCHAR E
ENCODING 25
SWIDTH 530 0
DWIDTH 27 0
BBX 14 23 0 -23
BITMAP
C000
E000
F000
F800
FC00
FE00
FF00
FF80
FFC0
FFE0
FFF0
FFF8
FFFC
FFF8
FF80
FFC0
F7C0
E7E0
C3E0
03F0
01F0
01F0
00E0
ENDCHAR
STARTCHAR D
ENCODING 26
SWIDTH 255 0
DWIDTH 13 0
BBX 12 21 1 -22
BITMAP
8000
C000
E000
F000
F800
FC00
FE00
FF00
FF80
FFC0
FFE0
FFF0
FF00
FE00
EF00
C700
8780
0380
03C0
01C0
01C0
ENDCHAR
STARTCHAR E
ENCODING 27
SWIDTH 530 0
DWIDTH 27 0
BBX 14 23 0 -23
BITMAP
C000
E000
F000
F800
FC00
FE00
FF00
FF80
FFC0
FFE0
FFF0
FFF8
FFFC
FFF8
FF80
FFC0
F7C0
E7E0
C3E0
03F0
01F0
01F0
00E0
ENDCHAR
STARTCHAR D
ENCODING 28
SWIDTH 255 0
DWIDTH 13 0
BBX 12 21 1 -22
BITMAP
8000
C000
E000
F000
F800
FC00
FE00
FF00
FF80
FFC0
FFE0
FFF0
FF00
FE00
EF00
C700
8780
0380
03C0
01C0
01C0
ENDCHAR
STARTCHAR E
ENCODING 29
SWIDTH 530 0
DWIDTH 27 0
BBX 14 23 0 -23
BITMAP
C000
E000
F000
F800
FC00
FE00
FF00
FF80
FFC0
FFE0
FFF0
FFF8
FFFC
FFF8
FF80
FFC0
F7C0
E7E0
C3E0
03F0
01F0
01F0
00E0
ENDCHAR
STARTCHAR quotedbl
ENCODING 30
SWIDTH 510 0
DWIDTH 26 0
BBX 24 23 -10 -13
BITMAP
003800
003800
003800
003800
003800
003800
003800
003800
003800
002800
FFC7FF
FF83FF
FFC7FF
002800
003800
003800
003800
003800
003800
003800
003800
003800
003800
ENDCHAR
STARTCHAR numbersign
ENCODING 31
SWIDTH 294 0
DWIDTH 15 0
BBX 26 25 -11 -14
BITMAP
001C0000
003E0000
003E0000
003E0000
003E0000
003E0000
003E0000
003E0000
003E0000
003E0000
7FF7FF80
FFE3FFC0
FFC1FFC0
FFE3FFC0
7FF7FF80
003E0000
003E0000
003E0000
003E0000
003E0000
003E0000
003E0000
003E0000
003E0000
001C0000
ENDCHAR
STARTCHAR D
ENCODING 32
SWIDTH 255 0
DWIDTH 13 0
BBX 12 21 1 -22
BITMAP
8000
C000
E000
F000
F800
FC00
FE00
FF00
FF80
FFC0
FFE0
FFF0
FF00
FE00
EF00
C700
8780
0380
03C0
01C0
01C0
ENDCHAR
STARTCHAR E
ENCODING 33
SWIDTH 530 0
DWIDTH 27 0
BBX 14 23 0 -23
BITMAP
C000
E000
F000
F800
FC00
FE00
FF00
FF80
FFC0
FFE0
FFF0
FFF8
FFFC
FFF8
FF80
FFC0
F7C0
E7E0
C3E0
03F0
01F0
01F0
00E0
ENDCHAR
STARTCHAR quotedbl
ENCODING 34
SWIDTH 510 0
DWIDTH 26 0
BBX 24 23 -10 -13
BITMAP
003800
003800
003800
003800
003800
003800
003800
003800
003800
002800
FFC7FF
FF83FF
FFC7FF
002800
003800
003800
003800
003800
003800
003800
003800
003800
003800
ENDCHAR
STARTCHAR numbersign
ENCODING 35
SWIDTH 294 0
DWIDTH 15 0
BBX 26 25 -11 -14
BITMAP
001C0000
003E0000
003E0000
003E0000
003E0000
003E0000
003E0000
003E0000
003E0000
003E0000
7FF7FF80
FFE3FFC0
FFC1FFC0
FFE3FFC0
7FF7FF80
003E0000
003E0000
003E0000
003E0000
003E0000
003E0000
003E0000
003E0000
003E0000
001C0000
ENDCHAR
STARTCHAR D
ENCODING 36
SWIDTH 255 0
DWIDTH 13 0
BBX 12 21 1 -22
BITMAP
8000
C000
E000
F000
F800
FC00
FE00
FF00
FF80
FFC0
FFE0
FFF0
FF00
FE00
EF00
C700
8780
0380
03C0
01C0
01C0
ENDCHAR
STARTCHAR E
ENCODING 37
SWIDTH 530 0
DWIDTH 27 0
BBX 14 23 0 -23
BITMAP
C000
E000
F000
F800
FC00
FE00
FF00
FF80
FFC0
FFE0
FFF0
FFF8
FFFC
FFF8
FF80
FFC0
F7C0
E7E0
C3E0
03F0
01F0
01F0
00E0
ENDCHAR
STARTCHAR D
ENCODING 38
SWIDTH 255 0
DWIDTH 13 0
BBX 12 21 1 -22
BITMAP
8000
C000
E000
F000
F800
FC00
FE00
FF00
FF80
FFC0
FFE0
FFF0
FF00
FE00
EF00
C700
8780
0380
03C0
01C0
01C0
ENDCHAR
STARTCHAR E
ENCODING 39
SWIDTH 530 0
DWIDTH 27 0
BBX 14 23 0 -23
BITMAP
C000
E000
F000
F800
FC00
FE00
FF00
FF80
FFC0
FFE0
FFF0
FFF8
FFFC
FFF8
FF80
FFC0
F7C0
E7E0
C3E0
03F0
01F0
01F0
00E0
ENDCHAR
STARTCHAR D
ENCODING 40
SWIDTH 255 0
DWIDTH 13 0
BBX 12 21 1 -22
BITMAP
8000
C000
E000
F000
F800
FC00
FE00
FF00
FF80
FFC0
FFE0
FFF0
FF00
FE00
EF00
C700
8780
0380
03C0
01C0
01C0
ENDCHAR
STARTCHAR E
ENCODING 41
SWIDTH 530 0
DWIDTH 27 0
BBX 14 23 0 -23
BITMAP
C000
E000
F000
F800
FC00
FE00
FF00
FF80
FFC0
FFE0
FFF0
FFF8
FFFC
FFF8
FF80
FFC0
F7C0
E7E0
C3E0
03F0
01F0
01F0
00E0
ENDCHAR
STARTCHAR asterisk
ENCODING 42
SWIDTH 510 0
DWIDTH 26 0
BBX 15 23 -6 -13
BITMAP
0100
0380
07C0
0FE0
1FF0
3FF8
7BBC
F39E
638C
0380
0380
0380
0380
0380
E38C
F39E
7BBC
3FF8
1FF0
0FE0
07C0
0380
0100
ENDCHAR
STARTCHAR plus
ENCODING 43
SWIDTH 196 0
DWIDTH 10 0
BBX 17 25 -7 -14
BITMAP
008000
01C000
03E000
07F000
0FF800
1FFC00
3FFE00
7FFF00
FFFF80
7BEF00
33E600
03E000
03E000
03E000
33E600
7BEF00
FFFF80
7FFF00
3FFE00
1FFC00
0FF800
07F000
03E000
01C000
008000
ENDCHAR
STARTCHAR C002
ENCODING 44
SWIDTH 1139 0
DWIDTH 58 0
BBX 12 21 -10 -22
BITMAP
0010
0030
0070
00F0
01F0
03F0
07F0
0FF0
1FF0
3FF0
7FF0
FFF0
0FF0
07F0
0F70
0E30
1E10
1C00
3C00
3800
3800
ENDCHAR
STARTCHAR C003
ENCODING 45
SWIDTH 1414 0
DWIDTH 72 0
BBX 14 23 -11 -23
BITMAP
000C
001C
003C
007C
00FC
01FC
03FC
07FC
0FFC
1FFC
3FFC
7FFC
FFFC
7FFC
07FC
0FFC
0FBC
1F9C
1F0C
3F00
3E00
3E00
1C00
ENDCHAR
STARTCHAR C002
ENCODING 46
SWIDTH 1139 0
DWIDTH 58 0
BBX 12 21 -10 -22
BITMAP
0010
0030
0070
00F0
01F0
03F0
07F0
0FF0
1FF0
3FF0
7FF0
FFF0
0FF0
07F0
0F70
0E30
1E10
1C00
3C00
3800
3800
ENDCHAR
STARTCHAR C003
ENCODING 47
SWIDTH 1414 0
DWIDTH 72 0
BBX 14 23 -11 -23
BITMAP
000C
001C
003C
007C
00FC
01FC
03FC
07FC
0FFC
1FFC
3FFC
7FFC
FFFC
7FFC
07FC
0FFC
0FBC
1F9C
1F0C
3F00
3E00
3E00
1C00
ENDCHAR
STARTCHAR D
ENCODING 48
SWIDTH 255 0
DWIDTH 13 0
BBX 12 21 1 -22
BITMAP
8000
C000
E000
F000
F800
FC00
FE00
FF00
FF80
FFC0
FFE0
FFF0
FF00
FE00
EF00
C700
8780
0380
03C0
01C0
01C0
ENDCHAR
STARTCHAR E
ENCODING 49
SWIDTH 530 0
DWIDTH 27 0
BBX 14 23 0 -23
BITMAP
C000
E000
F000
F800
FC00
FE00
FF00
FF80
FFC0
FFE0
FFF0
FFF8
FFFC
FFF8
FF80
FFC0
F7C0
E7E0
C3E0
03F0
01F0
01F0
00E0
ENDCHAR
STARTCHAR 2
ENCODING 50
SWIDTH 510 0
DWIDTH 26 0
BBX 21 23 -9 -13
BITMAP
00F800
C3FE00
E7FF80
FFC3C0
DF00E0
CE0060
C60020
C30000
FF8000
FF8000
000000
000000
000000
000FF8
000FF8
000618
200318
300398
3C07D8
1E1FF8
0FFF38
03FE18
00F800
ENDCHAR
STARTCHAR 2
ENCODING 51
SWIDTH 510 0
DWIDTH 26 0
BBX 21 23 -9 -13
BITMAP
00F800
C3FE00
E7FF80
FFC3C0
FF00E0
FE0060
FE0020
FF0000
FF8000
FF8000
000000
000000
000000
000FF8
000FF8
0007F8
2003F8
3003F8
3C07F8
1E1FF8
0FFF38
03FE18
00F800
ENDCHAR
STARTCHAR 4
ENCODING 52
SWIDTH 255 0
DWIDTH 13 0
BBX 27 27 -12 -15
BITMAP
00040000
000E0000
001F0000
003F8000
007FC000
007FC000
000E0000
000E0000
000E0000
0C0E0600
1C0E0700
3C0E0780
7FFFFFC0
FFFFFFE0
7FFFFFC0
3C0E0780
1C0E0700
0C0E0600
000E0000
000E0000
000E0000
007FC000
007FC000
003F8000
001F0000
000E0000
00040000
ENDCHAR
STARTCHAR 4
ENCODING 53
SWIDTH 314 0
DWIDTH 16 0
BBX 29 29 -13 -16
BITMAP
00020000
00070000
000F8000
001FC000
003FE000
007FF000
007FF000
003FE000
000F8000
060F8300
0F0F8780
1F0F87C0
3FFFFFE0
7FFFFFF0
FFFFFFF8
7FFFFFF0
3FFFFFE0
1F0F87C0
0F0F8780
060F8300
000F8000
003FE000
007FF000
007FF000
003FE000
001FC000
000F8000
00070000
00020000
ENDCHAR
STARTCHAR D
ENCODING 54
SWIDTH 255 0
DWIDTH 13 0
BBX 12 21 1 -22
BITMAP
8000
C000
E000
F000
F800
FC00
FE00
FF00
FF80
FFC0
FFE0
FFF0
FF00
FE00
EF00
C700
8780
0380
03C0
01C0
01C0
ENDCHAR
STARTCHAR E
ENCODING 55
SWIDTH 530 0
DWIDTH 27 0
BBX 14 23 0 -23
BITMAP
C000
E000
F000
F800
FC00
FE00
FF00
FF80
FFC0
FFE0
FFF0
FFF8
FFFC
FFF8
FF80
FFC0
F7C0
E7E0
C3E0
03F0
01F0
01F0
00E0
ENDCHAR
STARTCHAR D
ENCODING 56
SWIDTH 255 0
DWIDTH 13 0
BBX 12 21 1 -22
BITMAP
8000
C000
E000
F000
F800
FC00
FE00
FF00
FF80
FFC0
FFE0
FFF0
FF00
FE00
EF00
C700
8780
0380
03C0
01C0
01C0
ENDCHAR
STARTCHAR E
ENCODING 57
SWIDTH 530 0
DWIDTH 27 0
BBX 14 23 0 -23
BITMAP
C000
E000
F000
F800
FC00
FE00
FF00
FF80
FFC0
FFE0
FFF0
FFF8
FFFC
FFF8
FF80
FFC0
F7C0
E7E0
C3E0
03F0
01F0
01F0
00E0
ENDCHAR
STARTCHAR less
ENCODING 58
SWIDTH 510 0
DWIDTH 26 0
BBX 23 21 -21 -21
BITMAP
001FFC
00FFFE
01E006
0307FC
060FF8
0C0060
0C07C0
0C0FC0
0C0060
1E07C0
330FC0
6180C0
C0C780
C06F00
603C00
318C00
199800
0C3000
066000
03C000
018000
ENDCHAR
STARTCHAR equal
ENCODING 59
SWIDTH 432 0
DWIDTH 22 0
BBX 23 21 -21 -21
BITMAP
001FFC
00FFFE
01FFFE
03FFFC
07FFF8
0FFFE0
0FFFC0
0FFFC0
0FFFE0
1FFFC0
3FFFC0
7FFFC0
FFFF80
FFFF00
7FFC00
3FFC00
1FF800
0FF000
07E000
03C000
018000
ENDCHAR
STARTCHAR less
ENCODING 60
SWIDTH 962 0
DWIDTH 49 0
BBX 23 21 1 -21
BITMAP
7FF000
FFFE00
C00F00
7FC180
3FE0C0
0C0060
07C060
07E060
0C0060
07C0F0
07E198
06030C
03C606
01EC06
00780C
006318
003330
001860
000CC0
000780
000300
ENDCHAR
STARTCHAR equal
ENCODING 61
SWIDTH 923 0
DWIDTH 47 0
BBX 23 21 1 -21
BITMAP
7FF000
FFFE00
FFFF00
7FFF80
3FFFC0
0FFFE0
07FFE0
07FFE0
0FFFE0
07FFF0
07FFF8
07FFFC
03FFFE
01FFFE
007FFC
007FF8
003FF0
001FE0
000FC0
000780
000300
ENDCHAR
STARTCHAR D
ENCODING 62
SWIDTH 255 0
DWIDTH 13 0
BBX 12 21 1 -22
BITMAP
8000
C000
E000
F000
F800
FC00
FE00
FF00
FF80
FFC0
FFE0
FFF0
FF00
FE00
EF00
C700
8780
0380
03C0
01C0
01C0
ENDCHAR
STARTCHAR E
ENCODING 63
SWIDTH 530 0
DWIDTH 27 0
BBX 14 23 0 -23
BITMAP
C000
E000
F000
F800
FC00
FE00
FF00
FF80
FFC0
FFE0
FFF0
FFF8
FFFC
FFF8
FF80
FFC0
F7C0
E7E0
C3E0
03F0
01F0
01F0
00E0
ENDCHAR
STARTCHAR D
ENCODING 64
SWIDTH 255 0
DWIDTH 13 0
BBX 12 21 1 -22
BITMAP
8000
C000
E000
F000
F800
FC00
FE00
FF00
FF80
FFC0
FFE0
FFF0
FF00
FE00
EF00
C700
8780
0380
03C0
01C0
01C0
ENDCHAR
STARTCHAR E
ENCODING 65
SWIDTH 530 0
DWIDTH 27 0
BBX 14 23 0 -23
BITMAP
C000
E000
F000
F800
FC00
FE00
FF00
FF80
FFC0
FFE0
FFF0
FFF8
FFFC
FFF8
FF80
FFC0
F7C0
E7E0
C3E0
03F0
01F0
01F0
00E0
ENDCHAR
STARTCHAR D
ENCODING 66
SWIDTH 255 0
DWIDTH 13 0
BBX 12 21 1 -22
BITMAP
8000
C000
E000
F000
F800
FC00
FE00
FF00
FF80
FFC0
FFE0
FFF0
FF00
FE00
EF00
C700
8780
0380
03C0
01C0
01C0
ENDCHAR
STARTCHAR E
ENCODING 67
SWIDTH 530 0
DWIDTH 27 0
BBX 14 23 0 -23
BITMAP
C000
E000
F000
F800
FC00
FE00
FF00
FF80
FFC0
FFE0
FFF0
FFF8
FFFC
FFF8
FF80
FFC0
F7C0
E7E0
C3E0
03F0
01F0
01F0
00E0
ENDCHAR
STARTCHAR D
ENCODING 68
SWIDTH 255 0
DWIDTH 13 0
BBX 12 21 1 -22
BITMAP
8000
C000
E000
F000
F800
FC00
FE00
FF00
FF80
FFC0
FFE0
FFF0
FF00
FE00
EF00
C700
8780
0380
03C0
01C0
01C0
ENDCHAR
STARTCHAR E
ENCODING 69
SWIDTH 530 0
DWIDTH 27 0
BBX 14 23 0 -23
BITMAP
C000
E000
F000
F800
FC00
FE00
FF00
FF80
FFC0
FFE0
FFF0
FFF8
FFFC
FFF8
FF80
FFC0
F7C0
E7E0
C3E0
03F0
01F0
01F0
00E0
ENDCHAR
STARTCHAR C020
ENCODING 70
SWIDTH 216 0
DWIDTH 11 0
BBX 20 19 0 -11
BITMAP
E00000
E00000
E00000
E00000
E00800
E01800
E03800
E07800
E0FFF0
E1FFF0
E0FFF0
E07800
E03800
E01800
E00800
E00000
E00000
E00000
E00000
ENDCHAR
STARTCHAR C020
ENCODING 71
SWIDTH 235 0
DWIDTH 12 0
BBX 22 21 -1 -12
BITMAP
700000
F80000
F80000
F80200
F80600
F80E00
F81E00
F83E00
F87FF8
F8FFFC
F9FFFC
F8FFFC
F87FF8
F83E00
F81E00
F80E00
F80600
F80200
F80000
F80000
700000
ENDCHAR
STARTCHAR D
ENCODING 72
SWIDTH 255 0
DWIDTH 13 0
BBX 12 21 1 -22
BITMAP
8000
C000
E000
F000
F800
FC00
FE00
FF00
FF80
FFC0
FFE0
FFF0
FF00
FE00
EF00
C700
8780
0380
03C0
01C0
01C0
ENDCHAR
STARTCHAR E
ENCODING 73
SWIDTH 530 0
DWIDTH 27 0
BBX 14 23 0 -23
BITMAP
C000
E000
F000
F800
FC00
FE00
FF00
FF80
FFC0
FFE0
FFF0
FFF8
FFFC
FFF8
FF80
FFC0
F7C0
E7E0
C3E0
03F0
01F0
01F0
00E0
ENDCHAR
STARTCHAR D
ENCODING 74
SWIDTH 255 0
DWIDTH 13 0
BBX 12 21 1 -22
BITMAP
8000
C000
E000
F000
F800
FC00
FE00
FF00
FF80
FFC0
FFE0
FFF0
FF00
FE00
EF00
C700
8780
0380
03C0
01C0
01C0
ENDCHAR
STARTCHAR E
ENCODING 75
SWIDTH 530 0
DWIDTH 27 0
BBX 14 23 0 -23
BITMAP
C000
E000
F000
F800
FC00
FE00
FF00
FF80
FFC0
FFE0
FFF0
FFF8
FFFC
FFF8
FF80
FFC0
F7C0
E7E0
C3E0
03F0
01F0
01F0
00E0
ENDCHAR
STARTCHAR D
ENCODING 76
SWIDTH 255 0
DWIDTH 13 0
BBX 12 21 1 -22
BITMAP
8000
C000
E000
F000
F800
FC00
FE00
FF00
FF80
FFC0
FFE0
FFF0
FF00
FE00
EF00
C700
8780
0380
03C0
01C0
01C0
ENDCHAR
STARTCHAR E
ENCODING 77
SWIDTH 530 0
DWIDTH 27 0
BBX 14 23 0 -23
BITMAP
C000
E000
F000
F800
FC00
FE00
FF00
FF80
FFC0
FFE0
FFF0
FFF8
FFFC
FFF8
FF80
FFC0
F7C0
E7E0
C3E0
03F0
01F0
01F0
00E0
ENDCHAR
STARTCHAR D
ENCODING 78
SWIDTH 255 0
DWIDTH 13 0
BBX 12 21 1 -22
BITMAP
8000
C000
E000
F000
F800
FC00
FE00
FF00
FF80
FFC0
FFE0
FFF0
FF00
FE00
EF00
C700
8780
0380
03C0
01C0
01C0
ENDCHAR
STARTCHAR E
ENCODING 79
SWIDTH 530 0
DWIDTH 27 0
BBX 14 23 0 -23
BITMAP
C000
E000
F000
F800
FC00
FE00
FF00
FF80
FFC0
FFE0
FFF0
FFF8
FFFC
FFF8
FF80
FFC0
F7C0
E7E0
C3E0
03F0
01F0
01F0
00E0
ENDCHAR
STARTCHAR D
ENCODING 80
SWIDTH 255 0
DWIDTH 13 0
BBX 12 21 1 -22
BITMAP
8000
C000
E000
F000
F800
FC00
FE00
FF00
FF80
FFC0
FFE0
FFF0
FF00
FE00
EF00
C700
8780
0380
03C0
01C0
01C0
ENDCHAR
STARTCHAR E
ENCODING 81
SWIDTH 530 0
DWIDTH 27 0
BBX 14 23 0 -23
BITMAP
C000
E000
F000
F800
FC00
FE00
FF00
FF80
FFC0
FFE0
FFF0
FFF8
FFFC
FFF8
FF80
FFC0
F7C0
E7E0
C3E0
03F0
01F0
01F0
00E0
ENDCHAR
STARTCHAR D
ENCODING 82
SWIDTH 255 0
DWIDTH 13 0
BBX 12 21 1 -22
BITMAP
8000
C000
E000
F000
F800
FC00
FE00
FF00
FF80
FFC0
FFE0
FFF0
FF00
FE00
EF00
C700
8780
0380
03C0
01C0
01C0
ENDCHAR
STARTCHAR E
ENCODING 83
SWIDTH 530 0
DWIDTH 27 0
BBX 14 23 0 -23
BITMAP
C000
E000
F000
F800
FC00
FE00
FF00
FF80
FFC0
FFE0
FFF0
FFF8
FFFC
FFF8
FF80
FFC0
F7C0
E7E0
C3E0
03F0
01F0
01F0
00E0
ENDCHAR
STARTCHAR D
ENCODING 84
SWIDTH 255 0
DWIDTH 13 0
BBX 12 21 1 -22
BITMAP
8000
C000
E000
F000
F800
FC00
FE00
FF00
FF80
FFC0
FFE0
FFF0
FF00
FE00
EF00
C700
8780
0380
03C0
01C0
01C0
ENDCHAR
STARTCHAR E
ENCODING 85
SWIDTH 530 0
DWIDTH 27 0
BBX 14 23 0 -23
BITMAP
C000
E000
F000
F800
FC00
FE00
FF00
FF80
FFC0
FFE0
FFF0
FFF8
FFFC
FFF8
FF80
FFC0
F7C0
E7E0
C3E0
03F0
01F0
01F0
00E0
ENDCHAR
STARTCHAR V
ENCODING 86
SWIDTH 255 0
DWIDTH 13 0
BBX 12 21 1 -22
BITMAP
8000
C000
E000
F000
D800
CC00
CC00
6600
6600
3300
3300
1980
1980
0CC0
0CC0
0660
0660
03F0
0330
01F0
00E0
ENDCHAR
STARTCHAR W
ENCODING 87
SWIDTH 255 0
DWIDTH 13 0
BBX 12 21 1 -22
BITMAP
8000
C000
E000
F000
F800
FC00
FC00
7E00
7E00
3F00
3F00
1F80
1F80
0FC0
0FC0
07E0
07E0
03F0
03F0
01F0
00E0
ENDCHAR
STARTCHAR X
ENCODING 88
SWIDTH 353 0
DWIDTH 18 0
BBX 17 17 1 -2
BITMAP
003F80
007F00
00FC00
01F000
03C000
07FE00
01FC00
03F000
07C000
0F0000
1FF000
07E000
0F8000
1E0000
380000
600000
800000
ENDCHAR
STARTCHAR X
ENCODING 89
SWIDTH 392 0
DWIDTH 20 0
BBX 20 19 0 -3
BITMAP
001FF0
003FE0
007FC0
00FF80
01FE00
03FFC0
07FF80
0FFF00
03FE00
07F800
0FFE00
1FFC00
3FF800
0FF000
0FC000
3F0000
7C0000
F00000
C00000
ENDCHAR
STARTCHAR Z
ENCODING 90
SWIDTH 510 0
DWIDTH 26 0
BBX 15 15 -6 -9
BITMAP
0380
0380
0380
0380
0380
0380
FFFE
FFFE
FFFE
0380
0380
0380
0380
0380
0380
ENDCHAR
STARTCHAR Z
ENCODING 91
SWIDTH 196 0
DWIDTH 10 0
BBX 17 17 -7 -10
BITMAP
01C000
03E000
03E000
03E000
03E000
03E000
7FFF00
FFFF80
FFFF80
FFFF80
7FFF00
03E000
03E000
03E000
03E000
03E000
01C000
ENDCHAR
STARTCHAR D
ENCODING 92
SWIDTH 255 0
DWIDTH 13 0
BBX 12 21 1 -22
BITMAP
8000
C000
E000
F000
F800
FC00
FE00
FF00
FF80
FFC0
FFE0
FFF0
FF00
FE00
EF00
C700
8780
0380
03C0
01C0
01C0
ENDCHAR
STARTCHAR E
ENCODING 93
SWIDTH 530 0
DWIDTH 27 0
BBX 14 23 0 -23
BITMAP
C000
E000
F000
F800
FC00
FE00
FF00
FF80
FFC0
FFE0
FFF0
FFF8
FFFC
FFF8
FF80
FFC0
F7C0
E7E0
C3E0
03F0
01F0
01F0
00E0
ENDCHAR
STARTCHAR C002
ENCODING 94
SWIDTH 1139 0
DWIDTH 58 0
BBX 12 21 -10 -22
BITMAP
0010
0030
0070
00F0
01F0
03F0
07F0
0FF0
1FF0
3FF0
7FF0
FFF0
0FF0
07F0
0F70
0E30
1E10
1C00
3C00
3800
3800
ENDCHAR
STARTCHAR C003
ENCODING 95
SWIDTH 1414 0
DWIDTH 72 0
BBX 14 23 -11 -23
BITMAP
000C
001C
003C
007C
00FC
01FC
03FC
07FC
0FFC
1FFC
3FFC
7FFC
FFFC
7FFC
07FC
0FFC
0FBC
1F9C
1F0C
3F00
3E00
3E00
1C00
ENDCHAR
STARTCHAR C020
ENCODING 96
SWIDTH 216 0
DWIDTH 11 0
BBX 20 19 -17 -11
BITMAP
000070
000070
000070
000070
010070
018070
01C070
01E070
FFF070
FFF870
FFF070
01E070
01C070
018070
010070
000070
000070
000070
000070
ENDCHAR
STARTCHAR C020
ENCODING 97
SWIDTH 235 0
DWIDTH 12 0
BBX 22 21 -18 -12
BITMAP
000038
00007C
00007C
01007C
01807C
01C07C
01E07C
01F07C
7FF87C
FFFC7C
FFFE7C
FFFC7C
7FF87C
01F07C
01E07C
01C07C
01807C
01007C
00007C
00007C
000038
ENDCHAR
STARTCHAR D
ENCODING 98
SWIDTH 255 0
DWIDTH 13 0
BBX 12 21 1 -22
BITMAP
8000
C000
E000
F000
F800
FC00
FE00
FF00
FF80
FFC0
FFE0
FFF0
FF00
FE00
EF00
C700
8780
0380
03C0
01C0
01C0
ENDCHAR
STARTCHAR E
ENCODING 99
SWIDTH 530 0
DWIDTH 27 0
BBX 14 23 0 -23
BITMAP
C000
E000
F000
F800
FC00
FE00
FF00
FF80
FFC0
FFE0
FFF0
FFF8
FFFC
FFF8
FF80
FFC0
F7C0
E7E0
C3E0
03F0
01F0
01F0
00E0
ENDCHAR
STARTCHAR D
ENCODING 100
SWIDTH 255 0
DWIDTH 13 0
BBX 12 21 1 -22
BITMAP
8000
C000
E000
F000
F800
FC00
FE00
FF00
FF80
FFC0
FFE0
FFF0
FF00
FE00
EF00
C700
8780
0380
03C0
01C0
01C0
ENDCHAR
STARTCHAR E
ENCODING 101
SWIDTH 530 0
DWIDTH 27 0
BBX 14 23 0 -23
BITMAP
C000
E000
F000
F800
FC00
FE00
FF00
FF80
FFC0
FFE0
FFF0
FFF8
FFFC
FFF8
FF80
FFC0
F7C0
E7E0
C3E0
03F0
01F0
01F0
00E0
ENDCHAR
STARTCHAR D
ENCODING 102
SWIDTH 255 0
DWIDTH 13 0
BBX 12 21 1 -22
BITMAP
8000
C000
E000
F000
F800
FC00
FE00
FF00
FF80
FFC0
FFE0
FFF0
FF00
FE00
EF00
C700
8780
0380
03C0
01C0
01C0
ENDCHAR
STARTCHAR E
ENCODING 103
SWIDTH 530 0
DWIDTH 27 0
BBX 14 23 0 -23
BITMAP
C000
E000
F000
F800
FC00
FE00
FF00
FF80
FFC0
FFE0
FFF0
FFF8
FFFC
FFF8
FF80
FFC0
F7C0
E7E0
C3E0
03F0
01F0
01F0
00E0
ENDCHAR
STARTCHAR D
ENCODING 104
SWIDTH 255 0
DWIDTH 13 0
BBX 12 21 1 -22
BITMAP
8000
C000
E000
F000
F800
FC00
FE00
FF00
FF80
FFC0
FFE0
FFF0
FF00
FE00
EF00
C700
8780
0380
03C0
01C0
01C0
ENDCHAR
STARTCHAR E
ENCODING 105
SWIDTH 530 0
DWIDTH 27 0
BBX 14 23 0 -23
BITMAP
C000
E000
F000
F800
FC00
FE00
FF00
FF80
FFC0
FFE0
FFF0
FFF8
FFFC
FFF8
FF80
FFC0
F7C0
E7E0
C3E0
03F0
01F0
01F0
00E0
ENDCHAR
STARTCHAR j
ENCODING 106
SWIDTH 157 0
DWIDTH 8 0
BBX 13 20 -5 -2
BITMAP
0D80
0D80
0D80
0D80
0D80
0D80
0D80
0D80
0D80
0D80
0D80
0D80
0D80
FFF8
7FF0
3FE0
1FC0
0F80
0700
0200
ENDCHAR
STARTCHAR k
ENCODING 107
SWIDTH 176 0
DWIDTH 9 0
BBX 15 22 -6 -3
BITMAP
06C0
0FE0
0FE0
0FE0
0FE0
0FE0
0FE0
0FE0
0FE0
0FE0
0FE0
0FE0
0FE0
7FFC
FFFE
7FFC
3FF8
1FF0
0FE0
07C0
0380
0100
ENDCHAR
STARTCHAR l
ENCODING 108
SWIDTH 255 0
DWIDTH 13 0
BBX 25 13 -12 -7
BITMAP
02002000
06003000
0E003800
1E003C00
3FFFFE00
7FFFFF00
FE003F80
7FFFFF00
3FFFFE00
1E003C00
0E003800
06003000
02002000
ENDCHAR
STARTCHAR m
ENCODING 109
SWIDTH 274 0
DWIDTH 14 0
BBX 27 15 -13 -8
BITMAP
01001000
03803800
07803C00
0F803E00
1FFFFF00
3FFFFF80
7FFFFFC0
FFFFFFE0
7FFFFFC0
3FFFFF80
1FFFFF00
0F803E00
07803C00
03803800
01001000
ENDCHAR
STARTCHAR n
ENCODING 110
SWIDTH 412 0
DWIDTH 21 0
BBX 20 13 1 -8
BITMAP
020000
060000
0E0000
1E0000
3FFFF0
7FFFF0
FE0000
7FFFF0
3FFFF0
1E0000
0E0000
060000
020000
ENDCHAR
STARTCHAR o
ENCODING 111
SWIDTH 432 0
DWIDTH 22 0
BBX 22 15 0 -9
BITMAP
010000
038000
078000
0F8000
1FFFF8
3FFFFC
7FFFFC
FFFFF8
7FFFFC
3FFFFC
1FFFF8
0F8000
078000
038000
010000
ENDCHAR
STARTCHAR n
ENCODING 112
SWIDTH 412 0
DWIDTH 21 0
BBX 20 13 -18 -8
BITMAP
000400
000600
000700
000780
FFFFC0
FFFFE0
0007F0
FFFFE0
FFFFC0
000780
000700
000600
000400
ENDCHAR
STARTCHAR o
ENCODING 113
SWIDTH 432 0
DWIDTH 22 0
BBX 22 15 -19 -9
BITMAP
000200
000700
000780
0007C0
7FFFE0
FFFFF0
FFFFF8
7FFFFC
FFFFF8
FFFFF0
7FFFE0
0007C0
000780
000700
000200
ENDCHAR
STARTCHAR j
ENCODING 114
SWIDTH 157 0
DWIDTH 8 0
BBX 13 20 -5 -21
BITMAP
0200
0700
0F80
1FC0
3FE0
7FF0
FFF8
0D80
0D80
0D80
0D80
0D80
0D80
0D80
0D80
0D80
0D80
0D80
0D80
0D80
ENDCHAR
STARTCHAR k
ENCODING 115
SWIDTH 176 0
DWIDTH 9 0
BBX 15 22 -6 -22
BITMAP
0100
0380
07C0
0FE0
1FF0
3FF8
7FFC
FFFE
7FFC
0FE0
0FE0
0FE0
0FE0
0FE0
0FE0
0FE0
0FE0
0FE0
0FE0
0FE0
0FE0
06C0
ENDCHAR
STARTCHAR t
ENCODING 116
SWIDTH 137 0
DWIDTH 7 0
BBX 13 25 -5 -14
BITMAP
0200
0700
0F80
1FC0
3FE0
7FF0
FFF8
0D80
0D80
0D80
0D80
0D80
0D80
0D80
0D80
0D80
0D80
0D80
FFF8
7FF0
3FE0
1FC0
0F80
0700
0200
ENDCHAR
STARTCHAR u
ENCODING 117
SWIDTH 157 0
DWIDTH 8 0
BBX 15 27 -6 -15
BITMAP
0100
0380
07C0
0FE0
1FF0
3FF8
7FFC
FFFE
7FFC
0FE0
0FE0
0FE0
0FE0
0FE0
0FE0
0FE0
0FE0
0FE0
7FFC
FFFE
7FFC
3FF8
1FF0
0FE0
07C0
0380
0100
ENDCHAR
STARTCHAR D
ENCODING 118
SWIDTH 255 0
DWIDTH 13 0
BBX 12 21 1 -22
BITMAP
8000
C000
E000
F000
F800
FC00
FE00
FF00
FF80
FFC0
FFE0
FFF0
FF00
FE00
EF00
C700
8780
0380
03C0
01C0
01C0
ENDCHAR
STARTCHAR E
ENCODING 119
SWIDTH 530 0
DWIDTH 27 0
BBX 14 23 0 -23
BITMAP
C000
E000
F000
F800
FC00
FE00
FF00
FF80
FFC0
FFE0
FFF0
FFF8
FFFC
FFF8
FF80
FFC0
F7C0
E7E0
C3E0
03F0
01F0
01F0
00E0
ENDCHAR
STARTCHAR D
ENCODING 120
SWIDTH 255 0
DWIDTH 13 0
BBX 12 21 1 -22
BITMAP
8000
C000
E000
F000
F800
FC00
FE00
FF00
FF80
FFC0
FFE0
FFF0
FF00
FE00
EF00
C700
8780
0380
03C0
01C0
01C0
ENDCHAR
STARTCHAR E
ENCODING 121
SWIDTH 530 0
DWIDTH 27 0
BBX 14 23 0 -23
BITMAP
C000
E000
F000
F800
FC00
FE00
FF00
FF80
FFC0
FFE0
FFF0
FFF8
FFFC
FFF8
FF80
FFC0
F7C0
E7E0
C3E0
03F0
01F0
01F0
00E0
ENDCHAR
STARTCHAR D
ENCODING 122
SWIDTH 255 0
DWIDTH 13 0
BBX 12 21 1 -22
BITMAP
8000
C000
E000
F000
F800
FC00
FE00
FF00
FF80
FFC0
FFE0
FFF0
FF00
FE00
EF00
C700
8780
0380
03C0
01C0
01C0
ENDCHAR
STARTCHAR E
ENCODING 123
SWIDTH 530 0
DWIDTH 27 0
BBX 14 23 0 -23
BITMAP
C000
E000
F000
F800
FC00
FE00
FF00
FF80
FFC0
FFE0
FFF0
FFF8
FFFC
FFF8
FF80
FFC0
F7C0
E7E0
C3E0
03F0
01F0
01F0
00E0
ENDCHAR
STARTCHAR bar
ENCODING 124
SWIDTH 39 0
DWIDTH 2 0
BBX 15 26 -13 -22
BITMAP
000A
0054
00A0
0000
1CAA
1D54
1C00
1C20
3E14
7F0A
FF80
C180
C180
C180
C180
C180
C180
C180
FF80
FF80
FF80
FF80
C180
FF80
FF80
FF80
ENDCHAR
STARTCHAR bar
ENCODING 125
SWIDTH 39 0
DWIDTH 2 0
BBX 15 26 -13 -22
BITMAP
000E
007C
00E0
0000
1CFE
1DFE
1C00
1C60
3E3C
7F0E
FF80
FF80
FF80
FF80
FF80
FF80
FF80
FF80
FF80
FF80
FF80
FF80
FF80
FF80
FF80
FF80
ENDCHAR
STARTCHAR D
ENCODING 126
SWIDTH 255 0
DWIDTH 13 0
BBX 12 21 1 -22
BITMAP
8000
C000
E000
F000
F800
FC00
FE00
FF00
FF80
FFC0
FFE0
FFF0
FF00
FE00
EF00
C700
8780
0380
03C0
01C0
01C0
ENDCHAR
STARTCHAR E
ENCODING 127
SWIDTH 530 0
DWIDTH 27 0
BBX 14 23 0 -23
BITMAP
C000
E000
F000
F800
FC00
FE00
FF00
FF80
FFC0
FFE0
FFF0
FFF8
FFFC
FFF8
FF80
FFC0
F7C0
E7E0
C3E0
03F0
01F0
01F0
00E0
ENDCHAR
STARTCHAR D
ENCODING 128
SWIDTH 255 0
DWIDTH 13 0
BBX 12 21 1 -22
BITMAP
8000
C000
E000
F000
F800
FC00
FE00
FF00
FF80
FFC0
FFE0
FFF0
FF00
FE00
EF00
C700
8780
0380
03C0
01C0
01C0
ENDCHAR
STARTCHAR E
ENCODING 129
SWIDTH 530 0
DWIDTH 27 0
BBX 14 23 0 -23
BITMAP
C000
E000
F000
F800
FC00
FE00
FF00
FF80
FFC0
FFE0
FFF0
FFF8
FFFC
FFF8
FF80
FFC0
F7C0
E7E0
C3E0
03F0
01F0
01F0
00E0
ENDCHAR
STARTCHAR quotedbl
ENCODING 130
SWIDTH 510 0
DWIDTH 26 0
BBX 24 23 -10 -13
BITMAP
003800
003800
003800
003800
003800
003800
003800
003800
003800
002800
FFC7FF
FF83FF
FFC7FF
002800
003800
003800
003800
003800
003800
003800
003800
003800
003800
ENDCHAR
STARTCHAR numbersign
ENCODING 131
SWIDTH 294 0
DWIDTH 15 0
BBX 26 25 -11 -14
BITMAP
001C0000
003E0000
003E0000
003E0000
003E0000
003E0000
003E0000
003E0000
003E0000
003E0000
7FF7FF80
FFE3FFC0
FFC1FFC0
FFE3FFC0
7FF7FF80
003E0000
003E0000
003E0000
003E0000
003E0000
003E0000
003E0000
003E0000
003E0000
001C0000
ENDCHAR
STARTCHAR D
ENCODING 132
SWIDTH 255 0
DWIDTH 13 0
BBX 12 21 1 -22
BITMAP
8000
C000
E000
F000
F800
FC00
FE00
FF00
FF80
FFC0
FFE0
FFF0
FF00
FE00
EF00
C700
8780
0380
03C0
01C0
01C0
ENDCHAR
STARTCHAR E
ENCODING 133
SWIDTH 530 0
DWIDTH 27 0
BBX 14 23 0 -23
BITMAP
C000
E000
F000
F800
FC00
FE00
FF00
FF80
FFC0
FFE0
FFF0
FFF8
FFFC
FFF8
FF80
FFC0
F7C0
E7E0
C3E0
03F0
01F0
01F0
00E0
ENDCHAR
STARTCHAR C014
ENCODING 134
SWIDTH 510 0
DWIDTH 26 0
BBX 21 21 0 -21
BITMAP
FFFFF8
FFFFF8
FFFFF8
E00000
E00000
E00000
E00000
E00000
E0FF00
E0FE00
E0FC00
E0FC00
E0FE00
E0FF00
E0CF80
E087C0
E00380
E00100
E00000
E00000
E00000
ENDCHAR
STARTCHAR C014
ENCODING 135
SWIDTH 432 0
DWIDTH 22 0
BBX 23 23 -1 -22
BITMAP
FFFFFC
FFFFFE
FFFFFE
FFFFFE
FFFFFC
F80000
F80000
F80000
F8FFE0
F8FFC0
F8FF80
F8FF00
F8FF00
F8FF80
F8FFC0
F8FFE0
F8E7F0
F8C3E0
F881C0
F80080
F80000
F80000
700000
ENDCHAR
STARTCHAR C014
ENCODING 136
SWIDTH 510 0
DWIDTH 26 0
BBX 21 21 -18 -21
BITMAP
FFFFF8
FFFFF8
FFFFF8
000038
000038
000038
000038
000038
07F838
03F838
01F838
01F838
03F838
07F838
0F9838
1F0838
0E0038
040038
000038
000038
000038
ENDCHAR
STARTCHAR C014
ENCODING 137
SWIDTH 432 0
DWIDTH 22 0
BBX 23 23 -19 -22
BITMAP
7FFFFE
FFFFFE
FFFFFE
FFFFFE
7FFFFE
00003E
00003E
00003E
0FFE3E
07FE3E
03FE3E
01FE3E
01FE3E
03FE3E
07FE3E
0FFE3E
1FCE3E
0F863E
07023E
02003E
00003E
00003E
00001C
ENDCHAR
STARTCHAR C020
ENCODING 138
SWIDTH 216 0
DWIDTH 11 0
BBX 19 20 -8 -20
BITMAP
FFFFE0
FFFFE0
FFFFE0
000000
000000
000000
000000
004000
00E000
01F000
03F800
07FC00
0FFE00
00E000
00E000
00E000
00E000
00E000
00E000
00E000
ENDCHAR
STARTCHAR C020
ENCODING 139
SWIDTH 235 0
DWIDTH 12 0
BBX 21 22 -9 -21
BITMAP
7FFFF0
FFFFF8
FFFFF8
FFFFF8
7FFFF0
000000
000000
002000
007000
00F800
01FC00
03FE00
07FF00
0FFF80
1FFFC0
00F800
00F800
00F800
00F800
00F800
00F800
007000
ENDCHAR
STARTCHAR D
ENCODING 140
SWIDTH 255 0
DWIDTH 13 0
BBX 12 21 1 -22
BITMAP
8000
C000
E000
F000
F800
FC00
FE00
FF00
FF80
FFC0
FFE0
FFF0
FF00
FE00
EF00
C700
8780
0380
03C0
01C0
01C0
ENDCHAR
STARTCHAR E
ENCODING 141
SWIDTH 530 0
DWIDTH 27 0
BBX 14 23 0 -23
BITMAP
C000
E000
F000
F800
FC00
FE00
FF00
FF80
FFC0
FFE0
FFF0
FFF8
FFFC
FFF8
FF80
FFC0
F7C0
E7E0
C3E0
03F0
01F0
01F0
00E0
ENDCHAR
STARTCHAR D
ENCODING 142
SWIDTH 255 0
DWIDTH 13 0
BBX 12 21 1 -22
BITMAP
8000
C000
E000
F000
F800
FC00
FE00
FF00
FF80
FFC0
FFE0
FFF0
FF00
FE00
EF00
C700
8780
0380
03C0
01C0
01C0
ENDCHAR
STARTCHAR E
ENCODING 143
SWIDTH 530 0
DWIDTH 27 0
BBX 14 23 0 -23
BITMAP
C000
E000
F000
F800
FC00
FE00
FF00
FF80
FFC0
FFE0
FFF0
FFF8
FFFC
FFF8
FF80
FFC0
F7C0
E7E0
C3E0
03F0
01F0
01F0
00E0
ENDCHAR
STARTCHAR D
ENCODING 144
SWIDTH 255 0
DWIDTH 13 0
BBX 12 21 1 -22
BITMAP
8000
C000
E000
F000
F800
FC00
FE00
FF00
FF80
FFC0
FFE0
FFF0
FF00
FE00
EF00
C700
8780
0380
03C0
01C0
01C0
ENDCHAR
STARTCHAR E
ENCODING 145
SWIDTH 530 0
DWIDTH 27 0
BBX 14 23 0 -23
BITMAP
C000
E000
F000
F800
FC00
FE00
FF00
FF80
FFC0
FFE0
FFF0
FFF8
FFFC
FFF8
FF80
FFC0
F7C0
E7E0
C3E0
03F0
01F0
01F0
00E0
ENDCHAR
STARTCHAR D
ENCODING 146
SWIDTH 255 0
DWIDTH 13 0
BBX 12 21 1 -22
BITMAP
8000
C000
E000
F000
F800
FC00
FE00
FF00
FF80
FFC0
FFE0
FFF0
FF00
FE00
EF00
C700
8780
0380
03C0
01C0
01C0
ENDCHAR
STARTCHAR E
ENCODING 147
SWIDTH 530 0
DWIDTH 27 0
BBX 14 23 0 -23
BITMAP
C000
E000
F000
F800
FC00
FE00
FF00
FF80
FFC0
FFE0
FFF0
FFF8
FFFC
FFF8
FF80
FFC0
F7C0
E7E0
C3E0
03F0
01F0
01F0
00E0
ENDCHAR
STARTCHAR D
ENCODING 148
SWIDTH 255 0
DWIDTH 13 0
BBX 12 21 1 -22
BITMAP
8000
C000
E000
F000
F800
FC00
FE00
FF00
FF80
FFC0
FFE0
FFF0
FF00
FE00
EF00
C700
8780
0380
03C0
01C0
01C0
ENDCHAR
STARTCHAR E
ENCODING 149
SWIDTH 530 0
DWIDTH 27 0
BBX 14 23 0 -23
BITMAP
C000
E000
F000
F800
FC00
FE00
FF00
FF80
FFC0
FFE0
FFF0
FFF8
FFFC
FFF8
FF80
FFC0
F7C0
E7E0
C3E0
03F0
01F0
01F0
00E0
ENDCHAR
STARTCHAR C226
ENCODING 150
SWIDTH 235 0
DWIDTH 12 0
BBX 23 37 -10 -20
BITMAP
007C00
00FE00
00FE00
00FE00
00FE00
00FE00
00FE00
00FE00
03FF80
0FFFE0
1F01F0
3C0078
383838
70381C
70381C
60380C
E0380E
E0380E
E0380E
E03C0E
E01E0E
600F0C
70079C
70031C
380038
3C0078
1F01F0
0FFFE0
03FF80
00FE00
00FE00
00FE00
00FE00
00FE00
00FE00
00FE00
007C00
ENDCHAR
STARTCHAR C226
ENCODING 151
SWIDTH 235 0
DWIDTH 12 0
BBX 23 37 -10 -20
BITMAP
007C00
00FE00
00FE00
00FE00
00FE00
00FE00
00FE00
00FE00
03FF80
0FFFE0
1FFFF0
3FFFF8
3FFFF8
7FFFFC
7FFFFC
7FFFFC
FFFFFE
FFFFFE
FFFFFE
FFFFFE
FFFFFE
7FFFFC
7FFFFC
7FFFFC
3FFFF8
3FFFF8
1FFFF0
0FFFE0
03FF80
00FE00
00FE00
00FE00
00FE00
00FE00
00FE00
00FE00
007C00
ENDCHAR
STARTCHAR C230
ENCODING 152
SWIDTH 373 0
DWIDTH 19 0
BBX 11 21 -4 -12
BITMAP
FBE0
FFE0
1F00
0E00
0E00
0E00
0E00
0E00
0E00
0E00
0E00
0E00
0E00
0E00
0E00
0E00
0E00
0E00
1F00
FFE0
FBE0
ENDCHAR
STARTCHAR C231
ENCODING 153
SWIDTH 157 0
DWIDTH 8 0
BBX 13 23 -5 -13
BITMAP
7DF0
FFF8
FFF8
7FF0
0F80
0F80
0F80
0F80
0F80
0F80
0F80
0F80
0F80
0F80
0F80
0F80
0F80
0F80
0F80
7FF0
FFF8
FFF8
7DF0
ENDCHAR
ENDFONT
